<svg xmlns="http://www.w3.org/2000/svg" viewBox="0 0 24 24" fill="none">
  <rect width="24" height="24" rx="5" fill="#10A37F"/>
  <path d="M19.15 10.34a5.04 5.04 0 0 0-.44-3.52 5.12 5.12 0 0 0-3.52-2.48 5.2 5.2 0 0 0-4.04.75 5.06 5.06 0 0 0-2.83 2.5 5.12 5.12 0 0 0-.48 4.22 5.05 5.05 0 0 0 .44 3.52 5.12 5.12 0 0 0 3.52 2.48 5.2 5.2 0 0 0 4.04-.75 5.06 5.06 0 0 0 2.83-2.5 5.12 5.12 0 0 0 .48-4.22zm-7.15 7.66a3.7 3.7 0 0 1-2.22-.73l.11-.06 2.5-1.44a.7.7 0 0 0 .35-.61v-3.52l1.05.61a.06.06 0 0 1 .03.05v2.87a3.73 3.73 0 0 1-1.82 2.83zm-5.18-2.61a3.67 3.67 0 0 1-.48-2.3c.06.31.2.61.39.87l1.24 2.14a.7.7 0 0 0 .61.35h3.05v1.23a.06.06 0 0 1-.05.03h-2.87a3.73 3.73 0 0 1-1.89-2.32zm-1.07-5.83a3.7 3.7 0 0 1 1.74-1.57v.13l-.01 2.88a.7.7 0 0 0 .26.54l3.05 1.76-1.06.61a.06.06 0 0 1-.06 0L8.2 12.5a3.73 3.73 0 0 1-2.45-3.04zm9.46 1.78l-2.5-1.45a.7.7 0 0 0-.7 0l-2.5 1.45a.7.7 0 0 0-.35.61v2.89a.7.7 0 0 0 .35.61l2.5 1.45a.7.7 0 0 0 .7 0l2.5-1.45a.7.7 0 0 0 .35-.61v-2.89a.7.7 0 0 0-.35-.61zm-1.02-3.3l-1.24-2.15a.7.7 0 0 0-.61-.35H10.5V6.7a.06.06 0 0 1 .05-.03h2.87a3.73 3.73 0 0 1 1.89 2.32 3.67 3.67 0 0 1 .48 2.3 3.7 3.7 0 0 1-.41-.95l-.18-.3zm3.17 6.42a3.7 3.7 0 0 1-1.74 1.57v-.13l.01-2.88a.7.7 0 0 0-.26-.54l-3.05-1.76 1.06-.61a.06.06 0 0 1 .06 0l2.48 1.43a3.73 3.73 0 0 1 2.45 3.04zm-1.76-4.5l-.11.06-2.5 1.44a.7.7 0 0 0-.35.61v3.52l-1.05-.61a.06.06 0 0 1-.03-.05V9.45a3.73 3.73 0 0 1 1.82-2.83 3.7 3.7 0 0 1 2.22.73z" fill="#FFFFFF"/>
</svg>
