<svg xmlns="http://www.w3.org/2000/svg" viewBox="0 0 24 24" fill="none">
  <rect width="24" height="24" rx="5" fill="#21759B"/>
  <circle cx="12" cy="12" r="8" stroke="#FFFFFF" stroke-width="1.2"/>
  <path d="M6.5 12c0 2.3 1.4 4.3 3.4 5.1L7.2 9.5c-.5.7-.7 1.6-.7 2.5zm6.8-5.3c-.6 0-1 .4-1 .8 0 .5.3.8.7 1.1l.6.6c-.6 1.8-1.5 4.5-2.2 6.5l-1.9-5.5c.3-.1.6-.2.6-.5 0-.4-.4-.8-1-.8-.1 0-.3 0-.4.1l2.8 7.8 2.8-7.8c-.1-.2-.2-.3-.4-.3zm-1.3 10.7c.4.1.7.1 1.1.1 1.1 0 2.2-.4 3-1.1L12 12.8l-1.7 4.6zm5.5-5.4c0-.9-.3-1.6-.6-2.2-.5-.9-.7-1.3-.7-1.9 0-.8.6-1.5 1.5-1.5h.3c1.3 1.2 2.1 2.9 2.1 4.8 0 1.5-.5 2.8-1.3 3.9l-1.3-3.1z" fill="#FFFFFF"/>
</svg>
